<mxfile host="app.diagrams.net" modified="2023-03-12T12:34:52.048Z" agent="5.0 (Macintosh; Intel Mac OS X 10_15_7) AppleWebKit/537.36 (KHTML, like Gecko) Chrome/110.0.0.0 Safari/537.36 Edg/110.0.1587.63" etag="z14zbxdksbfiCrxtwKP-" version="21.0.6" type="github">
  <diagram name="第 1 页" id="uDlHZiJE0DJ6GP8GaZIZ">
    <mxGraphModel dx="1434" dy="828" grid="1" gridSize="10" guides="1" tooltips="1" connect="1" arrows="1" fold="1" page="1" pageScale="1" pageWidth="827" pageHeight="1169" math="0" shadow="0">
      <root>
        <mxCell id="0" />
        <mxCell id="1" parent="0" />
        <mxCell id="Be38bsfvip_2x_nDaGmS-13" style="edgeStyle=orthogonalEdgeStyle;rounded=0;orthogonalLoop=1;jettySize=auto;html=1;exitX=1;exitY=0.5;exitDx=0;exitDy=0;entryX=0;entryY=0.5;entryDx=0;entryDy=0;" edge="1" parent="1" source="Be38bsfvip_2x_nDaGmS-1" target="Be38bsfvip_2x_nDaGmS-10">
          <mxGeometry relative="1" as="geometry" />
        </mxCell>
        <mxCell id="Be38bsfvip_2x_nDaGmS-1" value="Start" style="ellipse;whiteSpace=wrap;html=1;aspect=fixed;fillColor=#dae8fc;strokeColor=#6c8ebf;fontSize=17;" vertex="1" parent="1">
          <mxGeometry x="20" y="310" width="80" height="80" as="geometry" />
        </mxCell>
        <mxCell id="Be38bsfvip_2x_nDaGmS-16" style="edgeStyle=orthogonalEdgeStyle;rounded=0;orthogonalLoop=1;jettySize=auto;html=1;exitX=1;exitY=0.5;exitDx=0;exitDy=0;entryX=0;entryY=0.5;entryDx=0;entryDy=0;" edge="1" parent="1" source="Be38bsfvip_2x_nDaGmS-2" target="Be38bsfvip_2x_nDaGmS-12">
          <mxGeometry relative="1" as="geometry" />
        </mxCell>
        <mxCell id="Be38bsfvip_2x_nDaGmS-32" value="when call destroy" style="edgeLabel;html=1;align=center;verticalAlign=middle;resizable=0;points=[];" vertex="1" connectable="0" parent="Be38bsfvip_2x_nDaGmS-16">
          <mxGeometry x="-0.5826" relative="1" as="geometry">
            <mxPoint x="12" as="offset" />
          </mxGeometry>
        </mxCell>
        <mxCell id="Be38bsfvip_2x_nDaGmS-2" value="Mounted" style="ellipse;whiteSpace=wrap;html=1;aspect=fixed;fillColor=#dae8fc;strokeColor=#6c8ebf;fontSize=17;" vertex="1" parent="1">
          <mxGeometry x="640" y="310" width="80" height="80" as="geometry" />
        </mxCell>
        <mxCell id="Be38bsfvip_2x_nDaGmS-14" style="edgeStyle=orthogonalEdgeStyle;rounded=0;orthogonalLoop=1;jettySize=auto;html=1;exitX=1;exitY=0.5;exitDx=0;exitDy=0;entryX=0;entryY=0.5;entryDx=0;entryDy=0;" edge="1" parent="1" source="Be38bsfvip_2x_nDaGmS-10" target="Be38bsfvip_2x_nDaGmS-11">
          <mxGeometry relative="1" as="geometry" />
        </mxCell>
        <mxCell id="Be38bsfvip_2x_nDaGmS-10" value="create instance" style="rounded=1;whiteSpace=wrap;html=1;fontSize=16;fillColor=#dae8fc;strokeColor=#6c8ebf;" vertex="1" parent="1">
          <mxGeometry x="160" y="320" width="120" height="60" as="geometry" />
        </mxCell>
        <mxCell id="Be38bsfvip_2x_nDaGmS-15" style="edgeStyle=orthogonalEdgeStyle;rounded=0;orthogonalLoop=1;jettySize=auto;html=1;exitX=1;exitY=0.5;exitDx=0;exitDy=0;entryX=0;entryY=0.5;entryDx=0;entryDy=0;" edge="1" parent="1" source="Be38bsfvip_2x_nDaGmS-11" target="Be38bsfvip_2x_nDaGmS-2">
          <mxGeometry relative="1" as="geometry" />
        </mxCell>
        <mxCell id="Be38bsfvip_2x_nDaGmS-11" value="render" style="rounded=1;whiteSpace=wrap;html=1;fontSize=16;fillColor=#dae8fc;strokeColor=#6c8ebf;" vertex="1" parent="1">
          <mxGeometry x="460" y="320" width="120" height="60" as="geometry" />
        </mxCell>
        <mxCell id="Be38bsfvip_2x_nDaGmS-12" value="Destroyed" style="ellipse;whiteSpace=wrap;html=1;aspect=fixed;fillColor=#dae8fc;strokeColor=#6c8ebf;fontSize=17;" vertex="1" parent="1">
          <mxGeometry x="930" y="310" width="80" height="80" as="geometry" />
        </mxCell>
        <mxCell id="Be38bsfvip_2x_nDaGmS-18" value="beforeCreate" style="rounded=1;whiteSpace=wrap;html=1;fontSize=16;strokeColor=#FF0000;fontColor=#FF0000;" vertex="1" parent="1">
          <mxGeometry x="70" y="140" width="120" height="60" as="geometry" />
        </mxCell>
        <mxCell id="Be38bsfvip_2x_nDaGmS-21" value="created" style="rounded=1;whiteSpace=wrap;html=1;fontSize=16;strokeColor=#FF0000;fontColor=#FF0000;" vertex="1" parent="1">
          <mxGeometry x="240" y="140" width="120" height="60" as="geometry" />
        </mxCell>
        <mxCell id="Be38bsfvip_2x_nDaGmS-22" value="beforeMount" style="rounded=1;whiteSpace=wrap;html=1;fontSize=16;strokeColor=#FF0000;fontColor=#FF0000;" vertex="1" parent="1">
          <mxGeometry x="370" y="140" width="120" height="60" as="geometry" />
        </mxCell>
        <mxCell id="Be38bsfvip_2x_nDaGmS-23" value="mounted" style="rounded=1;whiteSpace=wrap;html=1;fontSize=16;strokeColor=#FF0000;fontColor=#FF0000;" vertex="1" parent="1">
          <mxGeometry x="540" y="140" width="120" height="60" as="geometry" />
        </mxCell>
        <mxCell id="Be38bsfvip_2x_nDaGmS-24" value="beforeDestroy" style="rounded=1;whiteSpace=wrap;html=1;fontSize=16;strokeColor=#FF0000;fontColor=#FF0000;" vertex="1" parent="1">
          <mxGeometry x="780" y="140" width="120" height="60" as="geometry" />
        </mxCell>
        <mxCell id="Be38bsfvip_2x_nDaGmS-25" value="destroyed" style="rounded=1;whiteSpace=wrap;html=1;fontSize=16;strokeColor=#FF0000;fontColor=#FF0000;" vertex="1" parent="1">
          <mxGeometry x="910" y="140" width="120" height="60" as="geometry" />
        </mxCell>
        <mxCell id="Be38bsfvip_2x_nDaGmS-26" value="" style="endArrow=classic;dashed=1;html=1;rounded=0;entryX=0.5;entryY=1;entryDx=0;entryDy=0;endFill=1;strokeColor=#FF0000;" edge="1" parent="1">
          <mxGeometry width="50" height="50" relative="1" as="geometry">
            <mxPoint x="129" y="350" as="sourcePoint" />
            <mxPoint x="129" y="200" as="targetPoint" />
          </mxGeometry>
        </mxCell>
        <mxCell id="Be38bsfvip_2x_nDaGmS-27" value="" style="endArrow=classic;dashed=1;html=1;rounded=0;entryX=0.5;entryY=1;entryDx=0;entryDy=0;endFill=1;strokeColor=#FF0000;" edge="1" parent="1">
          <mxGeometry width="50" height="50" relative="1" as="geometry">
            <mxPoint x="300" y="350" as="sourcePoint" />
            <mxPoint x="300" y="200" as="targetPoint" />
          </mxGeometry>
        </mxCell>
        <mxCell id="Be38bsfvip_2x_nDaGmS-28" value="" style="endArrow=classic;dashed=1;html=1;rounded=0;entryX=0.5;entryY=1;entryDx=0;entryDy=0;endFill=1;strokeColor=#FF0000;" edge="1" parent="1">
          <mxGeometry width="50" height="50" relative="1" as="geometry">
            <mxPoint x="429.5" y="350" as="sourcePoint" />
            <mxPoint x="429.5" y="200" as="targetPoint" />
          </mxGeometry>
        </mxCell>
        <mxCell id="Be38bsfvip_2x_nDaGmS-29" value="" style="endArrow=classic;dashed=1;html=1;rounded=0;entryX=0.5;entryY=1;entryDx=0;entryDy=0;endFill=1;strokeColor=#FF0000;" edge="1" parent="1">
          <mxGeometry width="50" height="50" relative="1" as="geometry">
            <mxPoint x="600" y="350" as="sourcePoint" />
            <mxPoint x="600" y="200" as="targetPoint" />
          </mxGeometry>
        </mxCell>
        <mxCell id="Be38bsfvip_2x_nDaGmS-30" value="" style="endArrow=classic;dashed=1;html=1;rounded=0;entryX=0.5;entryY=1;entryDx=0;entryDy=0;endFill=1;strokeColor=#FF0000;" edge="1" parent="1">
          <mxGeometry width="50" height="50" relative="1" as="geometry">
            <mxPoint x="850" y="350" as="sourcePoint" />
            <mxPoint x="850" y="200" as="targetPoint" />
          </mxGeometry>
        </mxCell>
        <mxCell id="Be38bsfvip_2x_nDaGmS-33" value="" style="endArrow=classic;dashed=1;html=1;rounded=0;endFill=1;strokeColor=#FF0000;entryX=0.5;entryY=1;entryDx=0;entryDy=0;" edge="1" parent="1" source="Be38bsfvip_2x_nDaGmS-12" target="Be38bsfvip_2x_nDaGmS-25">
          <mxGeometry width="50" height="50" relative="1" as="geometry">
            <mxPoint x="939.5" y="350" as="sourcePoint" />
            <mxPoint x="960" y="220" as="targetPoint" />
          </mxGeometry>
        </mxCell>
      </root>
    </mxGraphModel>
  </diagram>
</mxfile>
